<svg width="180" height="180" viewBox="0 0 180 180" fill="none" xmlns="http://www.w3.org/2000/svg">
  <rect width="180" height="180" rx="45" fill="#121417"/>
  <path d="M90 33.75C67.7 33.75 49.5 51.95 49.5 74.25c0 16.7 8.2 31.4 20.7 40.7C75.3 131.6 82.6 135 90 135s14.7-3.4 19.8-20.05C122.5 105.7 130.5 91 130.5 74.25c0-22.3-18.2-40.5-40.5-40.5z" fill="#10B981"/>
  <path d="M90 112.5c-21.1 0-37.5-16.4-37.5-37.5S68.9 37.5 90 37.5s37.5 16.4 37.5 37.5S111.1 112.5 90 112.5z" fill="#059669"/>
  <circle cx="90" cy="74.25" r="15" fill="#047857"/>
</svg>
