<svg width="512" height="512" viewBox="0 0 512 512" fill="none" xmlns="http://www.w3.org/2000/svg">
  <rect width="512" height="512" rx="128" fill="#121417"/>
  <path d="M256 96C176.5 96 112 160.5 112 240c0 47.4 23.1 89.3 58.4 115.8C187.5 374.3 218.1 384 256 384s68.5-9.7 85.6-28.2C376.9 329.3 400 287.4 400 240c0-79.5-64.5-144-144-144z" fill="#10B981"/>
  <path d="M256 320c-44.2 0-80-35.8-80-80s35.8-80 80-80 80 35.8 80 80-35.8 80-80 80z" fill="#059669"/>
  <circle cx="256" cy="240" r="32" fill="#047857"/>
</svg>
